<svg width="131" height="17" viewBox="0 0 131 17" fill="none" xmlns="http://www.w3.org/2000/svg">
<path d="M11.4305 0.439999L10.2305 4.448H4.4225L5.5265 0.487999L11.4305 0.439999ZM15.9425 12.896L12.5825 16.976H0.9185L4.0145 6.032H9.8465L7.9265 12.872L15.9425 12.896ZM34.3886 4.472H18.5726C18.8926 3.384 19.4366 2.464 20.2046 1.712C21.1486 0.8 22.1246 0.344 23.1326 0.344H31.2926C33.3566 0.344 34.3886 1.44 34.3886 3.632C34.3886 4.176 34.3886 4.456 34.3886 4.472ZM34.0526 6.008L33.9566 6.392C33.7006 7.224 33.2606 8.744 32.6366 10.952C32.2366 12.344 31.6206 13.512 30.7886 14.456C29.2846 16.152 27.2686 17 24.7406 17H21.8846C20.3486 17 19.1326 16.712 18.2366 16.136C17.1326 15.448 16.5806 14.384 16.5806 12.944C16.5806 12.176 16.7006 11.36 16.9406 10.496L18.1406 6.056H23.7326L22.0766 11.888C22.0126 12.16 21.9806 12.368 21.9806 12.512C21.9806 12.832 22.1246 13.032 22.4126 13.112H25.8926C26.3246 13 26.6446 12.592 26.8526 11.888L28.5806 6.032L34.0526 6.008ZM51.3433 0.439999L50.1913 4.472H34.6152L37.1833 0.439999H51.3433ZM49.8553 6.032L48.5353 10.424H40.8313L39.0312 16.976H32.7192L35.7673 6.032H49.8553ZM68.6398 0.439999L67.5358 4.424H51.5518L54.0958 0.439999H68.6398ZM62.4238 6.032L59.5198 16.976H54.0238L56.9998 6.032H62.4238Z" fill="white"/>
<path d="M86.1944 0.439999L85.0904 4.424H69.1064L71.6504 0.439999H86.1944ZM79.9784 6.032L77.0744 16.976H71.5784L74.5544 6.032H79.9784ZM100.989 4.472H90.6211L94.0771 0.439999H100.125L100.989 4.472ZM103.677 16.976H97.6531L96.0211 10.448H92.6131L87.7891 16.976H80.7571L89.3491 6.008H101.325L103.677 16.976ZM123.947 0.464L120.083 4.448L108.467 4.424L107.507 0.511999H113.531L113.987 2.384L115.763 0.487999L123.947 0.464ZM118.595 6.032L115.691 9.224L117.323 17L111.083 16.976L110.627 14.96L108.827 17H100.691L109.115 7.688L108.779 6.08L118.595 6.032ZM130.409 0.439999L129.305 4.472H123.521L124.673 0.439999H130.409ZM128.945 6.032L125.945 16.976H120.113L123.161 6.032H128.945Z" fill="#FDBF5A"/>
</svg>
