<svg width="66" height="66" viewBox="0 0 66 66" fill="none" xmlns="http://www.w3.org/2000/svg">
<path fill-rule="evenodd" clip-rule="evenodd" d="M33 66C51.2254 66 66 51.2254 66 33C66 29.1726 65.3484 25.4974 64.1501 22.0793L22.0793 64.1501C25.4974 65.3484 29.1726 66 33 66ZM6.33352 52.4435L22.5254 36.2516L3.82961 17.5558C1.38486 22.1638 0 27.4202 0 33C0 40.2698 2.35072 46.9905 6.33352 52.4435ZM17.5558 3.82961L36.2516 22.5254L52.4435 6.33352C46.9905 2.35073 40.2698 0 33 0C27.4202 0 22.1638 1.38486 17.5558 3.82961Z" fill="#FDBF5A"/>
<path d="M10.8775 10.9608L14.9609 15.0441" stroke="#FDBF5A" stroke-width="4"/>
<path d="M19.6128 52.8971L15.5294 56.9804" stroke="#FDBF5A" stroke-width="4"/>
<path d="M26.8922 45.1324L22.8088 49.2157" stroke="#FDBF5A" stroke-width="4"/>
<path d="M34.1716 37.3676L30.0882 41.451" stroke="#FDBF5A" stroke-width="4"/>
<path d="M48.7304 21.8382L44.6471 25.9216" stroke="#FDBF5A" stroke-width="4"/>
<path d="M56.0098 14.0735L51.9265 18.1569" stroke="#FDBF5A" stroke-width="4"/>
<path d="M18.4412 18.4412L22.5245 22.5245" stroke="#FDBF5A" stroke-width="4"/>
<path d="M26.6912 26.6912L30.7745 30.7745" stroke="#FDBF5A" stroke-width="4"/>
<path d="M41.451 29.6029L37.3676 33.6863" stroke="#FDBF5A" stroke-width="4"/>
</svg>
